<svg width="42" height="42" viewBox="0 0 42 42" fill="none" xmlns="http://www.w3.org/2000/svg">
<g id="Group 1174">
<circle id="Ellipse 46" cx="20.7716" cy="20.59" r="20.59" fill="#D83D3D"/>
<path id="Vector" d="M21.1816 18.272C20.6421 18.272 20.1147 18.432 19.666 18.7318C19.2174 19.0315 18.8678 19.4576 18.6613 19.956C18.4548 20.4545 18.4008 21.003 18.5061 21.5322C18.6113 22.0614 18.8711 22.5475 19.2527 22.929C19.6342 23.3105 20.1203 23.5703 20.6494 23.6756C21.1786 23.7808 21.7271 23.7268 22.2256 23.5203C22.7241 23.3139 23.1501 22.9642 23.4499 22.5156C23.7496 22.067 23.9096 21.5395 23.9096 21C23.9096 20.6418 23.8391 20.287 23.702 19.956C23.5649 19.6251 23.3639 19.3243 23.1106 19.071C22.8573 18.8177 22.5566 18.6168 22.2256 18.4797C21.8946 18.3426 21.5399 18.272 21.1816 18.272ZM32.1046 15.577C32.0989 14.7275 31.9424 13.8858 31.6426 13.091C31.4219 12.5094 31.0802 11.9812 30.6403 11.5413C30.2004 11.1014 29.6723 10.7598 29.0906 10.539C28.2958 10.2392 27.4541 10.0828 26.6046 10.077C25.1856 10 24.7676 10 21.1816 10C17.5956 10 17.1776 10 15.7586 10.077C14.9092 10.0828 14.0675 10.2392 13.2726 10.539C12.691 10.7598 12.1628 11.1014 11.7229 11.5413C11.283 11.9812 10.9414 12.5094 10.7206 13.091C10.4209 13.8858 10.2644 14.7275 10.2586 15.577C10.1816 16.996 10.1816 17.414 10.1816 21C10.1816 24.586 10.1816 25.004 10.2586 26.423C10.2705 27.2755 10.4267 28.1197 10.7206 28.92C10.9405 29.499 11.2818 30.0241 11.7216 30.46C12.1597 30.9025 12.689 31.2442 13.2726 31.461C14.0675 31.7608 14.9092 31.9172 15.7586 31.923C17.1776 32 17.5956 32 21.1816 32C24.7676 32 25.1856 32 26.6046 31.923C27.4541 31.9172 28.2958 31.7608 29.0906 31.461C29.6743 31.2442 30.2036 30.9025 30.6416 30.46C31.0815 30.0241 31.4228 29.499 31.6426 28.92C31.9421 28.1213 32.0985 27.276 32.1046 26.423C32.1816 25.004 32.1816 24.586 32.1816 21C32.1816 17.414 32.1816 16.996 32.1046 15.577ZM29.3106 24.377C29.2753 25.0558 29.1305 25.7245 28.8816 26.357C28.6681 26.8847 28.3506 27.364 27.9481 27.7665C27.5456 28.169 27.0663 28.4865 26.5386 28.7C25.9001 28.935 25.2277 29.065 24.5476 29.085H17.8156C17.1355 29.065 16.4632 28.935 15.8246 28.7C15.2792 28.4973 14.7865 28.1739 14.3836 27.754C13.9851 27.3594 13.6773 26.8827 13.4816 26.357C13.2458 25.7191 13.1193 25.046 13.1076 24.366V17.634C13.1193 16.954 13.2458 16.2809 13.4816 15.643C13.6844 15.0975 14.0077 14.6049 14.4276 14.202C14.824 13.8056 15.3002 13.4981 15.8246 13.3C16.4632 13.065 17.1355 12.935 17.8156 12.915H24.5476C25.2277 12.935 25.9001 13.065 26.5386 13.3C27.0841 13.5027 27.5767 13.8261 27.9796 14.246C28.3782 14.6406 28.686 15.1173 28.8816 15.643C29.1166 16.2815 29.2466 16.9539 29.2666 17.634V21C29.2666 23.266 29.3436 23.497 29.3106 24.366V24.377ZM27.5506 16.193C27.4197 15.8377 27.2132 15.515 26.9454 15.2472C26.6776 14.9795 26.355 14.773 25.9996 14.642C25.5118 14.4729 24.9979 14.391 24.4816 14.4H17.8816C17.3627 14.4051 16.8488 14.5019 16.3636 14.686C16.0138 14.811 15.6945 15.0091 15.4271 15.267C15.1597 15.525 14.9502 15.8369 14.8126 16.182C14.6529 16.6719 14.5749 17.1848 14.5816 17.7V24.3C14.5925 24.8183 14.6892 25.3313 14.8676 25.818C14.9986 26.1733 15.2051 26.496 15.4729 26.7638C15.7406 27.0315 16.0633 27.238 16.4186 27.369C16.888 27.5416 17.3819 27.6382 17.8816 27.655H24.4816C25.0005 27.6499 25.5145 27.5531 25.9996 27.369C26.355 27.238 26.6776 27.0315 26.9454 26.7638C27.2132 26.496 27.4197 26.1733 27.5506 25.818C27.7347 25.3328 27.8316 24.8189 27.8366 24.3V17.7C27.837 17.1806 27.74 16.6657 27.5506 16.182V16.193ZM21.1816 25.202C20.6303 25.202 20.0845 25.0932 19.5753 24.8819C19.0661 24.6706 18.6036 24.3609 18.2143 23.9706C17.8249 23.5803 17.5165 23.117 17.3065 22.6072C17.0965 22.0975 16.9892 21.5513 16.9906 21C16.9906 20.1685 17.2374 19.3556 17.6996 18.6644C18.1618 17.9731 18.8187 17.4345 19.5872 17.1168C20.3556 16.7991 21.2011 16.7165 22.0165 16.8796C22.8319 17.0426 23.5806 17.4439 24.1678 18.0326C24.755 18.6214 25.1543 19.3712 25.3152 20.187C25.4761 21.0028 25.3913 21.8481 25.0716 22.6157C24.7519 23.3833 24.2116 24.0388 23.5191 24.4992C22.8267 24.9596 22.0132 25.2042 21.1816 25.202ZM25.5816 17.623C25.3385 17.5973 25.1134 17.4824 24.9499 17.3007C24.7863 17.1189 24.6959 16.883 24.6959 16.6385C24.6959 16.394 24.7863 16.1581 24.9499 15.9763C25.1134 15.7946 25.3385 15.6797 25.5816 15.654C25.8248 15.6797 26.0498 15.7946 26.2134 15.9763C26.3769 16.1581 26.4674 16.394 26.4674 16.6385C26.4674 16.883 26.3769 17.1189 26.2134 17.3007C26.0498 17.4824 25.8248 17.5973 25.5816 17.623Z" fill="white"/>
</g>
</svg>
