<svg width="42" height="42" viewBox="0 0 42 42" fill="none" xmlns="http://www.w3.org/2000/svg">
<g id="Group 1173">
<g id="Group 351">
<circle id="Ellipse 46" cx="20.5908" cy="20.5908" r="20.5908" fill="#D83D3D"/>
</g>
<path id="Vector" d="M30.6358 17.4859C30.6504 17.6828 30.6504 17.8797 30.6504 18.0766C30.6504 24.0812 25.9074 31 17.2386 31C14.5679 31 12.0869 30.2547 10 28.961C10.3795 29.0031 10.7443 29.0172 11.1383 29.0172C13.342 29.0172 15.3706 28.3 16.9905 27.0766C14.9182 27.0344 13.1815 25.7266 12.5831 23.9266C12.875 23.9687 13.1669 23.9969 13.4734 23.9969C13.8966 23.9969 14.3198 23.9406 14.7139 23.8422C12.554 23.4203 10.934 21.5922 10.934 19.3844V19.3281C11.5615 19.6656 12.2912 19.8766 13.0647 19.9047C11.795 19.089 10.9632 17.6969 10.9632 16.1218C10.9632 15.2781 11.1966 14.5047 11.6053 13.8297C13.9257 16.5859 17.4137 18.3859 21.3248 18.5828C21.2519 18.2453 21.2081 17.8938 21.2081 17.5422C21.2081 15.039 23.3096 13 25.9219 13C27.2792 13 28.5051 13.5484 29.3661 14.4344C30.4314 14.2375 31.453 13.8578 32.3579 13.3375C32.0076 14.3922 31.2633 15.2782 30.2855 15.8406C31.2342 15.7422 32.1536 15.489 33 15.1375C32.358 16.0375 31.5553 16.839 30.6358 17.4859Z" fill="white"/>
</g>
</svg>
